<?xml version="1.0" standalone="no"?>
<!DOCTYPE svg PUBLIC "-//W3C//DTD SVG 20010904//EN"
 "http://www.w3.org/TR/2001/REC-SVG-20010904/DTD/svg10.dtd">
<svg version="1.0" xmlns="http://www.w3.org/2000/svg"
 width="700.000000pt" height="700.000000pt" viewBox="0 0 700.000000 700.000000"
 preserveAspectRatio="xMidYMid meet">
<metadata>
Created by potrace 1.14, written by Peter Selinger 2001-2017
</metadata>
<g transform="translate(0.000000,700.000000) scale(0.100000,-0.100000)"
fill="#000000" stroke="none">
<path d="M970 6274 c0 -8 8 -14 18 -15 194 -9 382 -192 466 -456 30 -92 42
-147 52 -228 9 -78 9 -4111 0 -4190 -31 -268 -99 -446 -252 -662 -23 -31 -1
-37 32 -7 43 38 169 110 253 145 66 28 222 72 291 84 14 2 45 7 70 11 25 4
454 8 955 8 l910 1 17 65 c10 36 31 119 47 185 16 66 64 257 106 425 42 168
78 312 80 320 2 8 10 43 19 76 9 34 16 64 16 66 0 8 -1251 1 -1290 -6 -19 -4
-59 -14 -89 -22 -29 -8 -55 -13 -57 -11 -2 2 2 28 10 58 8 30 18 79 22 109 10
75 12 3211 1 3280 -4 30 -26 92 -48 138 -93 193 -346 377 -669 487 -69 23
-201 62 -238 70 -9 2 -37 8 -62 14 -153 34 -375 61 -562 66 -78 2 -98 0 -98
-11z"/>
<path d="M5967 2599 c-26 -217 -278 -414 -607 -474 -65 -12 -75 -12 -147 -14
l-72 -1 -15 -52 c-8 -29 -17 -64 -20 -78 -2 -14 -14 -61 -25 -106 -12 -45 -24
-91 -26 -104 -2 -13 -9 -37 -14 -54 -6 -17 -12 -42 -15 -56 -3 -14 -7 -34 -10
-45 -22 -86 -49 -193 -51 -208 -2 -9 -6 -20 -8 -25 -3 -4 -8 -23 -11 -42 -3
-19 -12 -56 -20 -82 -8 -27 -12 -48 -10 -48 3 0 0 -8 -5 -17 -5 -10 -12 -34
-15 -53 -3 -19 -14 -65 -24 -102 -13 -46 -16 -68 -8 -71 6 -2 90 -3 186 -2
159 2 182 5 247 28 280 98 518 472 631 992 17 77 34 165 37 195 3 30 8 66 10
80 11 75 16 138 20 258 4 106 2 132 -9 132 -8 0 -15 -18 -19 -51z"/>
<path d="M4165 1561 c-75 -300 -138 -557 -141 -571 l-4 -25 290 0 290 0 10 30
c9 28 54 211 66 265 2 14 13 57 24 95 11 39 21 81 24 95 3 14 28 115 56 225
28 110 53 211 56 225 3 14 14 61 26 105 11 44 21 85 22 90 0 6 -102 10 -290
11 l-292 0 -137 -545z"/>
</g>
</svg>
